<?xml version="1.0" encoding="UTF-8" standalone="no"?>
<svg
   xmlns:dc="http://purl.org/dc/elements/1.1/"
   xmlns:cc="http://creativecommons.org/ns#"
   xmlns:rdf="http://www.w3.org/1999/02/22-rdf-syntax-ns#"
   xmlns:svg="http://www.w3.org/2000/svg"
   xmlns="http://www.w3.org/2000/svg"
   version="1.1"
   id="svg3398"
   viewBox="0 0 48 48">
  <metadata
     id="metadata3408">
    <rdf:RDF>
      <cc:Work
         rdf:about="">
        <dc:format>image/svg+xml</dc:format>
        <dc:type
           rdf:resource="http://purl.org/dc/dcmitype/StillImage" />
        <dc:title></dc:title>
      </cc:Work>
    </rdf:RDF>
  </metadata>
  <defs
     id="defs3406" />
  <circle
     r="23.950001"
     cy="24.049999"
     cx="23.950001"
     id="path3348"
     style="opacity:1;fill:#ffffff;fill-opacity:1" />
  <path
     id="path3402"
     fill="#b94a48"
     d="M23.95 6.5q-3.653 0-6.798 1.433-3.145 1.33-5.58 3.786-2.332 2.35-3.752 5.523Q6.5 20.418 6.5 24t1.32 6.754q1.42 3.173 3.752 5.63 2.435 2.353 5.58 3.786Q20.4 41.5 23.95 41.5q3.65 0 6.796-1.33 3.247-1.433 5.58-3.787t3.754-5.63Q41.5 27.583 41.5 24q0-3.582-1.42-6.754-1.42-3.173-3.754-5.527-2.333-2.358-5.58-3.79Q27.6 6.5 23.95 6.5zm.912 4.503H27.5v8.8h5.884V17.86l4.87 2.763-4.667 3.684v-1.842h-8.725V11.003zm-2.637 25.585h-2.638v-7.983h-5.275v1.945l-4.77-3.685 4.77-2.763v1.74h7.913v10.643zm0-14.123H10.862v-2.66h8.725V14.48h-1.725l2.84-4.707 3.45 4.707h-1.826v7.983zm14.913 6.243H27.5v4.4h1.826l-3.043 4.912-3.145-4.912h1.724v-7.06h12.276v2.66z" />
</svg>
