<svg xmlns="http://www.w3.org/2000/svg" height="48" width="48" viewBox="0 0 48 48">
  <rect ry="2.378" rx="2.252" y=".1" height="47.9" width="47.9" fill="#fff"/>
  <path fill="#666" d="M40.054 6.75h-32.2q-.736 0-1.196.552-.46.46-.46 1.196v31.096q0 .644.46 1.196.552.46 1.196.46h32.2q.736 0 1.196-.46.552-.552.552-1.196V8.498q0-.736-.552-1.196-.368-.552-1.104-.552zM12.73 19.354q.644-.736 1.38-1.38l1.38-1.38q.368-.368.736-.46.46-.092.828.368.368.368.276.828-.092.368-.46.736-.184.276-.46.46t-.368.644h7.084q.46.092.736.368.276.276.276.736 0 .46-.276.736-.276.276-.736.276-.92 0-1.84.092h-5.428l.644.644.552.552q.276.276.276.736 0 .368-.276.644-.368.368-.736.368t-.736-.276l-1.472-1.472q-.736-.736-1.38-1.472-.368-.368-.368-.828 0-.46.368-.828zm10.304 16.284h-6.9q0 .092-.092.184 0 .092-.092.184.276.276.552.46t.552.46q.276.276.276.644t-.276.644q-.276.276-.736.368-.368 0-.644-.276-.828-.736-1.564-1.472-.828-.828-1.472-1.564-.368-.368-.276-.828 0-.46.46-.828.644-.736 1.38-1.38l1.38-1.38q.368-.276.736-.368.368-.092.736.276.46.368.368.828 0 .368-.368.828-.184.276-.46.552-.276.184-.368.644h6.992q.552 0 .828.276.276.184.368.736 0 .552-.368.828-.368.276-.828.276zm12.144-6.348l-1.38 1.38-1.38 1.38q-.368.368-.828.46-.368 0-.736-.368t-.368-.736q0-.368.368-.736.276-.276.552-.46l.552-.368q0-.092-.092-.184 0-.092-.092-.184H25.15q-.552 0-1.012-.092-.46-.184-.46-.828 0-.644.368-.92.46-.276 1.104-.276h6.9l-.644-.644q-.276-.276-.46-.552-.368-.368-.368-.736t.368-.736q.276-.276.644-.276t.736.276q.828.736 1.564 1.472.736.736 1.472 1.564.368.368.276.828-.092.46-.46.828zm0-14.812l-1.38 1.38-1.38 1.38q-.368.368-.828.368-.368 0-.736-.368t-.368-.736q0-.368.368-.736.276-.276.552-.46l.552-.368q0-.092-.092-.184 0-.092-.092-.184H25.15q-.552 0-1.012-.184-.46-.184-.46-.828 0-.736.368-.92.46-.276 1.104-.276h6.9q-.276-.368-.552-.644t-.46-.552q-.368-.368-.368-.736t.368-.736q.276-.368.644-.276.368 0 .736.276.828.736 1.564 1.472l1.472 1.472q.368.46.276.92-.092.46-.46.828z"/>
</svg>
