<svg xmlns="http://www.w3.org/2000/svg" height="48" width="48" viewBox="0 0 48 48">
  <circle r="23.95" cy="24.05" cx="23.95" fill="#fff"/>
  <path fill="#666" d="M36.7 30.1zm-9.5 8.5q-.3-.4-.5-.9t-.3-.9V36q.1-.6.3-1.1.2-.5.7-.9.3-.3.6-.5.4-.3.7-.4.2-.1.3-.2.1-.1.1-.3.1-1.7.9-2.9.9-1.2 2.4-1.8 1.2-.5 2.5-.3t2.4.9q.3-1.1.4-2.1.2-1.1.2-2.3 0-1.4-.3-2.8t-.7-2.7q-.9-2.3-2.4-4.4-1.3-2.1-3.3-3.5-2-1.5-4.5-2.3-2.4-.8-5.1-.8-3.4 0-6.4 1.3-3 1.3-5.2 3.5t-3.5 5.2q-1.3 3-1.3 6.4 0 3.1 1.1 5.9 1.1 2.7 2.9 4.9 1.9 2.1 4.4 3.5 2.6 1.4 5.6 1.9.6.1 1.2.1h1.2q1.7 0 3.2-.3 1.6-.3 3-.9-.1-.1-.3-.2l-.3-.3zm-9.7-13.9q-.7.7-1.4 1.5-.7.7-1.5 1.4-.3.3-.7.3-.3 0-.7-.3-.3-.3-.3-.7 0-.4.3-.7l.5-.5.6-.6H7.7q-.6 0-1-.2t-.4-.9q0-.6.4-.7.5-.2 1-.2H14q0-.1.1-.2 0-.1.1-.2-.3-.2-.5-.3-.3-.2-.5-.4-.3-.3-.4-.7 0-.4.3-.7.4-.4.8-.3.4 0 .7.4l1.3 1.3 1.3 1.3q.4.4.4.8.1.4-.3.8zm7.6 10.7l-1.3 1.3-1.3 1.3q-.3.4-.8.5-.4 0-.9-.3-.7-.7-1.5-1.4-.7-.7-1.4-1.5-.3-.3-.3-.6 0-.4.3-.7.3-.3.7-.3.4 0 .7.3.3.2.5.5l.6.6v-6.6q0-.6.2-1t.9-.4q.6 0 .8.5.2.4.1.9v6.3q.1 0 .2.1.1 0 .2.1.2-.3.4-.5.2-.3.4-.5.3-.3.6-.4.4 0 .8.3.4.4.3.8 0 .4-.4.7zm.1-21.1q-.3.3-.7.3-.3 0-.7-.3l-.5-.5-.6-.6v6.6q0 .6-.2 1t-.9.4q-.6 0-.8-.4-.2-.5-.1-1v-6.3q-.1 0-.2-.1-.1 0-.2-.1-.2.3-.4.5-.2.3-.4.5-.3.3-.7.4-.3 0-.7-.3-.4-.4-.3-.8 0-.4.4-.7l1.3-1.3 1.3-1.3q.3-.4.8-.4.5-.1.9.3l1.4 1.4 1.5 1.5q.3.3.3.7 0 .3-.3.7zm.8 8.8l1.3-1.3 1.3-1.3q.4-.3.7-.4.4 0 .8.3.3.3.3.7 0 .3-.3.7-.3.2-.5.4-.3.2-.5.3 0 .1.1.2 0 .1.1.2h7q.3 0 .5.3.1.1.2.3 0 .1.1.3 0 .4-.2.6-.1.2-.4.3-.2.1-.4.1h-7q.3.4.6.6l.5.5q.3.3.3.7 0 .3-.3.7-.3.3-.7.3-.3 0-.6-.3-.8-.7-1.5-1.4T26 24.4q-.4-.4-.3-.8.1-.4.4-.8zm17.6 12q-.1-1.4-1.3-2.4-1.2-1.1-2.6-1-.2 0-.3-.1-.1-.1-.1-.2-.3-.7-.8-1.2-.4-.6-.9-.9-1-.6-2.2-.8-1.2-.2-2.3.3-1.4.6-2.2 1.7-.8 1.1-.9 2.6 0 .2-.1.3 0 .1-.2.2-.3.2-.7.4l-.6.4q-.4.3-.6.8-.2.5-.3 1v.7q.1.5.3.9.2.4.5.8.1.1.2.3.1.1.3.2.4.3.9.5t1 .2h9q1.4 0 2.5-1t1.3-2.4v-1.2zm-6.2-3.6q-.1-.1-.2-.3-.1-.2-.2-.3l.3.3.3.3h-.1zm-2.3-1.3h3.2v2.9h-3.2v-2.9z"/>
</svg>
